<svg xmlns="http://www.w3.org/2000/svg" width="440" height="380" viewBox="40 12 60 90" class="looka-1j8o68f"><defs id="SvgjsDefs1554"><linearGradient id="SvgjsLinearGradient1561"><stop id="SvgjsStop1562" stop-color="#2d388a" offset="0"></stop><stop id="SvgjsStop1563" stop-color="#00aeef" offset="1"></stop></linearGradient></defs><g id="SvgjsG1555" featurekey="rootContainer" transform="matrix(1,0,0,1,0,0)" fill="#000" fill-opacity="0" ><rect xmlns="http://www.w3.org/2000/svg" width="410" height="114" rx="10" ry="10"></rect></g><g id="SvgjsG1556" featurekey="symbolFeature-0" transform="matrix(0.8484312675973009,0,0,0.8484312675973009,9.428547182499655,2.7259388738776025)" fill="#054269"><g xmlns="http://www.w3.org/2000/svg" fill="#054269"><path d="M63.78 31.11c15.01.78 27.96 11.53 30.16 26.53q.35 2.34.68 4.01.09.47.57.47h7.97q.91 0 .91.9v.44q0 .71-.71.71h-8.38q-.47 0-.55.47-1.07 6.47-1.46 7.52-7.64 20.37-29.35 22.47-.47.04-.47.52v11.78q0 .56-.56.56H12.98a.52.52 0 0 1-.52-.52V20.7a.34.34 0 0 1 .34-.34h49.86q.51 0 .51.51v9.6q0 .61.61.64m-2.73 1.36v-9.45a.57.57 0 0 0-.57-.57H15.01q-.52 0-.52.53v38.71q0 .44.44.44h17.11q.56 0 .58.56.67 17.04 14.07 25.51c6.57 4.15 15.15 5.45 22.31 3.55 12.36-3.29 22.53-13.91 23.16-27.16.84-17.51-12.85-31.94-30.45-31.48q-.66.02-.66-.64m0 62.52q0-.35-.35-.38-18.19-1.42-26.75-17.25-2.58-4.78-3.28-12.58-.05-.63-.68-.63H15.04q-.54 0-.54.54v40.29q0 .47.47.47h45.78q.3 0 .3-.29z"></path><circle cx="117.55" cy="35.7" r="5.2"></circle><path d="M59.78 38.8q.52-.02.09.27-.3.2-.59.06-.73-.36.11-.32.12 0 .39-.01M58.27 39.23c-12.15 3.65-19.98 14.83-16.98 27.36 3.17 13.24 18.19 20.81 30.94 14.86q10.06-4.7 12.91-16.51a.1.1 0 0 1 .14-.07l.32.14q.17.08.14.28-2.97 17.2-19.3 21.66-4.1 1.12-9.56.04c-15.59-3.07-23.34-20.11-17.07-34.03 3-6.67 10.77-13.87 18.76-13.9a.05.04-47.4 0 1 0 .09q-.07.01-.3.08"></path><path d="M85.19 63.02q-5.83-.16-17.75-.06-5.12.05-7.36-1.16c-12.62-6.81-4.6-26.47 10.22-21.37 9.48 3.27 15.59 12.26 15.19 22.3a.3.3 0 0 1-.3.29M129.68 63.08l-10.17 10.16a2.21 2.21 0 0 1-3.12 0l-10.17-10.16a2.21 2.21 0 0 1 0-3.12l10.17-10.17a2.21 2.21 0 0 1 3.12 0l10.17 10.17a2.21 2.21 0 0 1 0 3.12m-11.386-6.428a.37.37 0 0 0-.523-.01l-4.749 4.554a.37.37 0 0 0-.01.523l4.554 4.749a.37.37 0 0 0 .523.01l4.749-4.553a.37.37 0 0 0 .01-.524z"></path><circle cx="117.54" cy="87.98" r="5.21"></circle></g></g></svg>