<svg xmlns="http://www.w3.org/2000/svg" width="180" height="40" viewBox="15 15 380 85" class="looka-1j8o68f"><defs id="SvgjsDefs1554"><linearGradient id="SvgjsLinearGradient1561"><stop id="SvgjsStop1562" stop-color="#2d388a" offset="0"></stop><stop id="SvgjsStop1563" stop-color="#00aeef" offset="1"></stop></linearGradient></defs><g id="SvgjsG1555" featurekey="rootContainer" transform="matrix(1,0,0,1,0,0)" fill="#000" fill-opacity="0"><rect xmlns="http://www.w3.org/2000/svg" width="240" height="95" rx="15" ry="15"></rect></g><g id="SvgjsG1556" featurekey="symbolFeature-0" transform="matrix(0.8484312675973009,0,0,0.8484312675973009,9.428547182499655,2.7259388738776025)" fill="#054269"><g xmlns="http://www.w3.org/2000/svg" fill="#054269"><path d="M63.78 31.11c15.01.78 27.96 11.53 30.16 26.53q.35 2.34.68 4.01.09.47.57.47h7.97q.91 0 .91.9v.44q0 .71-.71.71h-8.38q-.47 0-.55.47-1.07 6.47-1.46 7.52-7.64 20.37-29.35 22.47-.47.04-.47.52v11.78q0 .56-.56.56H12.98a.52.52 0 0 1-.52-.52V20.7a.34.34 0 0 1 .34-.34h49.86q.51 0 .51.51v9.6q0 .61.61.64m-2.73 1.36v-9.45a.57.57 0 0 0-.57-.57H15.01q-.52 0-.52.53v38.71q0 .44.44.44h17.11q.56 0 .58.56.67 17.04 14.07 25.51c6.57 4.15 15.15 5.45 22.31 3.55 12.36-3.29 22.53-13.91 23.16-27.16.84-17.51-12.85-31.94-30.45-31.48q-.66.02-.66-.64m0 62.52q0-.35-.35-.38-18.19-1.42-26.75-17.25-2.58-4.78-3.28-12.58-.05-.63-.68-.63H15.04q-.54 0-.54.54v40.29q0 .47.47.47h45.78q.3 0 .3-.29z"></path><circle cx="117.55" cy="35.7" r="5.2"></circle><path d="M59.78 38.8q.52-.02.09.27-.3.2-.59.06-.73-.36.11-.32.12 0 .39-.01M58.27 39.23c-12.15 3.65-19.98 14.83-16.98 27.36 3.17 13.24 18.19 20.81 30.94 14.86q10.06-4.7 12.91-16.51a.1.1 0 0 1 .14-.07l.32.14q.17.08.14.28-2.97 17.2-19.3 21.66-4.1 1.12-9.56.04c-15.59-3.07-23.34-20.11-17.07-34.03 3-6.67 10.77-13.87 18.76-13.9a.05.04-47.4 0 1 0 .09q-.07.01-.3.08"></path><path d="M85.19 63.02q-5.83-.16-17.75-.06-5.12.05-7.36-1.16c-12.62-6.81-4.6-26.47 10.22-21.37 9.48 3.27 15.59 12.26 15.19 22.3a.3.3 0 0 1-.3.29M129.68 63.08l-10.17 10.16a2.21 2.21 0 0 1-3.12 0l-10.17-10.16a2.21 2.21 0 0 1 0-3.12l10.17-10.17a2.21 2.21 0 0 1 3.12 0l10.17 10.17a2.21 2.21 0 0 1 0 3.12m-11.386-6.428a.37.37 0 0 0-.523-.01l-4.749 4.554a.37.37 0 0 0-.01.523l4.554 4.749a.37.37 0 0 0 .523.01l4.749-4.553a.37.37 0 0 0 .01-.524z"></path><circle cx="117.54" cy="87.98" r="5.21"></circle></g></g><g id="SvgjsG1557" featurekey="nameFeature-0" transform="matrix(1.006149585776985,0,0,1.006149585776985,140.00000191907804,30.966452834803732)" fill="url(#SvgjsLinearGradient1561)"><path d="M30.76 40 l-10.8 0 l-3.64 -6.28 l-7 0 l0 6.28 l-9.32 0 l0 -15.6 l22.88 0.04 c2.6 0 4.68 -2.12 4.68 -4.68 c0 -2.6 -2.08 -4.68 -4.68 -4.68 l-19.76 0 l0 3.12 l19.76 0 c0.84 0.04 1.48 0.72 1.48 1.56 s-0.64 1.52 -1.48 1.56 l-0.04 0 l-0.04 0 l-22.8 0 l0 -9.36 l22.88 0 c4.32 0 7.8 3.48 7.8 7.8 c0 4.28 -3.48 7.8 -7.8 7.8 l-19.76 -0.04 l0 9.36 l3.12 0 l0 -6.28 l11.88 0 c1.28 2.32 3.44 5.88 3.64 6.28 l3.6 0 c-0.32 -0.44 -2.16 -3.72 -3.64 -6.28 l3.6 0 c1.32 2.28 2.64 4.64 3.72 6.4 z M59.372 30.64 l1.8 -3.12 l5.44 9.36 l3.6 0 c-0.8 -1.28 -8.4 -14.28 -9.04 -15.56 l-7.84 13.6 l-2.92 5.08 l-10.8 0 c0.6 -1 4.64 -8.04 8.52 -14.8 c2.28 -3.96 4.8 -8.4 7.64 -13.24 l3.6 0 l-7.44 12.88 l-6.92 12.04 l3.6 0 c4.92 -8.68 8 -13.8 12.56 -21.8 c0.28 0.48 14.36 24.88 14.44 24.92 l-10.8 0 z M102.78399999999999 25.68 l0 -13.72 l9.36 0 l0 28.04 l-9.36 0 l-15 -17.36 l0 -4.8 l16.44 19.04 l4.8 0 l0 -21.8 l-3.12 0 l0 19 l-16.44 -19 l-4.8 0 l0 21.8 l3.12 0 l0 -9.44 l3.12 3.6 l0 8.96 l-9.36 0 l0 -28.04 l9.36 0 z M142.156 11.96 l9.2 0 l0 13.4 l-0.04 0 c-0.32 8.16 -6.92 14.64 -15.16 14.64 c-8.32 0 -15.16 -6.84 -15.16 -15.16 l0 -3.6 l13.32 0 l0 3.04 l-10.2 0 l0 0.56 c0 6.64 5.4 12.04 12.04 12.04 c6.6 0 11.92 -5.28 12.04 -11.84 l0 -10 l-3 0 l0 9.88 c0 4.96 -4.12 8.96 -9.04 8.96 c-4.16 0 -7.6 -2.84 -8.68 -6.56 l3.24 0 c0.92 2.08 3 3.52 5.44 3.52 c3.32 0 6 -2.68 6 -6 l0 -12.88 z M169.56800000000004 40 l-9.36 0 l0 -28.04 l9.36 0 l0 21.8 l-3.12 0 l0 -18.68 l-3.12 0 l0 21.8 l6.24 0 l0 3.12 z M178.42000000000002 21.32 l0 -9.36 l30.6 0 l0 9.36 l-7.52 0 l0 -3.12 l4.4 0 l0 -3.12 l-24.36 0 l0 3.12 l10.64 0 l-0.04 18.68 l3.12 0 l0 -18.68 l3.12 0 l0 21.8 l-9.36 0 l0 -18.68 l-10.6 0 z M239.11200000000002 21.32 l0 -9.36 l9.36 0 l0 28.04 l-9.36 0 l0 -9.32 l-18.12 0 l0 6.2 l3.12 0 l0 -3.12 l3.12 0 l0 6.24 l-9.36 0 l0 -12.48 l24.4 0 l0 9.36 l3.08 0 l0 -21.8 l-3.08 0 l0 9.36 l-18.16 0 l0 -9.36 l-3.12 0 l0 9.36 l-3.12 0 l0 -12.48 l9.36 0 l0 9.36 l11.88 0 z"></path></g></svg>